<mxfile host="app.diagrams.net" agent="Mozilla/5.0 (Windows NT 10.0; Win64; x64) AppleWebKit/537.36 (KHTML, like Gecko) Chrome/131.0.0.0 Safari/537.36" version="25.0.3">
  <diagram name="Page-1" id="XVz96HYZDaVrsoHU1E9_">
    <mxGraphModel dx="1434" dy="746" grid="1" gridSize="10" guides="1" tooltips="1" connect="1" arrows="1" fold="1" page="1" pageScale="1" pageWidth="850" pageHeight="1100" math="0" shadow="0">
      <root>
        <mxCell id="0" />
        <mxCell id="1" parent="0" />
        <mxCell id="SJadG3gvaAwJ8imaXhFB-7" style="edgeStyle=orthogonalEdgeStyle;rounded=0;orthogonalLoop=1;jettySize=auto;html=1;entryX=0.5;entryY=0;entryDx=0;entryDy=0;" edge="1" parent="1" source="SJadG3gvaAwJ8imaXhFB-1" target="SJadG3gvaAwJ8imaXhFB-3">
          <mxGeometry relative="1" as="geometry" />
        </mxCell>
        <mxCell id="SJadG3gvaAwJ8imaXhFB-1" value="&lt;font style=&quot;font-size: 24px;&quot;&gt;start&lt;/font&gt;" style="strokeWidth=2;html=1;shape=mxgraph.flowchart.start_1;whiteSpace=wrap;" vertex="1" parent="1">
          <mxGeometry x="375" y="40" width="100" height="60" as="geometry" />
        </mxCell>
        <mxCell id="SJadG3gvaAwJ8imaXhFB-2" value="&lt;font style=&quot;font-size: 24px;&quot;&gt;end&lt;/font&gt;" style="strokeWidth=2;html=1;shape=mxgraph.flowchart.start_1;whiteSpace=wrap;" vertex="1" parent="1">
          <mxGeometry x="375.5" y="560" width="100" height="60" as="geometry" />
        </mxCell>
        <mxCell id="SJadG3gvaAwJ8imaXhFB-8" style="edgeStyle=orthogonalEdgeStyle;rounded=0;orthogonalLoop=1;jettySize=auto;html=1;entryX=0.5;entryY=0;entryDx=0;entryDy=0;" edge="1" parent="1" source="SJadG3gvaAwJ8imaXhFB-3" target="SJadG3gvaAwJ8imaXhFB-6">
          <mxGeometry relative="1" as="geometry" />
        </mxCell>
        <mxCell id="SJadG3gvaAwJ8imaXhFB-3" value="input n" style="shape=parallelogram;perimeter=parallelogramPerimeter;whiteSpace=wrap;html=1;fixedSize=1;" vertex="1" parent="1">
          <mxGeometry x="359" y="170" width="132" height="30" as="geometry" />
        </mxCell>
        <mxCell id="SJadG3gvaAwJ8imaXhFB-4" value="output&lt;div&gt;n, &quot;!=&quot;, factorial(n)&lt;/div&gt;" style="shape=parallelogram;perimeter=parallelogramPerimeter;whiteSpace=wrap;html=1;fixedSize=1;" vertex="1" parent="1">
          <mxGeometry x="350" y="480" width="151" height="40" as="geometry" />
        </mxCell>
        <mxCell id="SJadG3gvaAwJ8imaXhFB-10" style="edgeStyle=orthogonalEdgeStyle;rounded=0;orthogonalLoop=1;jettySize=auto;html=1;entryX=0.5;entryY=0;entryDx=0;entryDy=0;" edge="1" parent="1" source="SJadG3gvaAwJ8imaXhFB-5" target="SJadG3gvaAwJ8imaXhFB-4">
          <mxGeometry relative="1" as="geometry" />
        </mxCell>
        <mxCell id="SJadG3gvaAwJ8imaXhFB-5" value="printFactorialSeries(n)" style="verticalLabelPosition=bottom;verticalAlign=top;html=1;shape=process;whiteSpace=wrap;rounded=1;size=0.14;arcSize=6;" vertex="1" parent="1">
          <mxGeometry x="358" y="370" width="135" height="40" as="geometry" />
        </mxCell>
        <mxCell id="SJadG3gvaAwJ8imaXhFB-9" style="edgeStyle=orthogonalEdgeStyle;rounded=0;orthogonalLoop=1;jettySize=auto;html=1;entryX=0.5;entryY=0;entryDx=0;entryDy=0;" edge="1" parent="1" source="SJadG3gvaAwJ8imaXhFB-6" target="SJadG3gvaAwJ8imaXhFB-5">
          <mxGeometry relative="1" as="geometry" />
        </mxCell>
        <mxCell id="SJadG3gvaAwJ8imaXhFB-6" value="output&lt;div&gt;n, &quot;!=&quot;&lt;/div&gt;" style="shape=parallelogram;perimeter=parallelogramPerimeter;whiteSpace=wrap;html=1;fixedSize=1;" vertex="1" parent="1">
          <mxGeometry x="359" y="270" width="132" height="30" as="geometry" />
        </mxCell>
        <mxCell id="SJadG3gvaAwJ8imaXhFB-11" style="edgeStyle=orthogonalEdgeStyle;rounded=0;orthogonalLoop=1;jettySize=auto;html=1;entryX=0.5;entryY=0;entryDx=0;entryDy=0;entryPerimeter=0;" edge="1" parent="1" source="SJadG3gvaAwJ8imaXhFB-4" target="SJadG3gvaAwJ8imaXhFB-2">
          <mxGeometry relative="1" as="geometry" />
        </mxCell>
        <mxCell id="SJadG3gvaAwJ8imaXhFB-20" style="edgeStyle=orthogonalEdgeStyle;rounded=0;orthogonalLoop=1;jettySize=auto;html=1;entryX=0.5;entryY=0;entryDx=0;entryDy=0;" edge="1" parent="1" source="SJadG3gvaAwJ8imaXhFB-12" target="SJadG3gvaAwJ8imaXhFB-14">
          <mxGeometry relative="1" as="geometry" />
        </mxCell>
        <mxCell id="SJadG3gvaAwJ8imaXhFB-12" value="&lt;font style=&quot;font-size: 16px;&quot;&gt;factorial(n)&lt;/font&gt;" style="strokeWidth=2;html=1;shape=mxgraph.flowchart.start_1;whiteSpace=wrap;" vertex="1" parent="1">
          <mxGeometry x="710" y="40" width="100" height="60" as="geometry" />
        </mxCell>
        <mxCell id="SJadG3gvaAwJ8imaXhFB-25" style="edgeStyle=orthogonalEdgeStyle;rounded=0;orthogonalLoop=1;jettySize=auto;html=1;entryX=0.5;entryY=0;entryDx=0;entryDy=0;" edge="1" parent="1" source="SJadG3gvaAwJ8imaXhFB-13" target="SJadG3gvaAwJ8imaXhFB-21">
          <mxGeometry relative="1" as="geometry" />
        </mxCell>
        <mxCell id="SJadG3gvaAwJ8imaXhFB-13" value="&lt;font style=&quot;font-size: 16px;&quot;&gt;printFactorialSeries(n)&lt;/font&gt;" style="strokeWidth=2;html=1;shape=mxgraph.flowchart.start_1;whiteSpace=wrap;" vertex="1" parent="1">
          <mxGeometry x="1224" y="40" width="190" height="80" as="geometry" />
        </mxCell>
        <mxCell id="SJadG3gvaAwJ8imaXhFB-14" value="if ( n == 0 || n == 1)" style="rhombus;whiteSpace=wrap;html=1;" vertex="1" parent="1">
          <mxGeometry x="689" y="150" width="142" height="70" as="geometry" />
        </mxCell>
        <mxCell id="SJadG3gvaAwJ8imaXhFB-16" value="&lt;font style=&quot;font-size: 16px;&quot;&gt;return 1&lt;/font&gt;" style="strokeWidth=2;html=1;shape=mxgraph.flowchart.start_1;whiteSpace=wrap;" vertex="1" parent="1">
          <mxGeometry x="580" y="255" width="100" height="60" as="geometry" />
        </mxCell>
        <mxCell id="SJadG3gvaAwJ8imaXhFB-17" style="edgeStyle=orthogonalEdgeStyle;rounded=0;orthogonalLoop=1;jettySize=auto;html=1;entryX=0.5;entryY=0;entryDx=0;entryDy=0;entryPerimeter=0;" edge="1" parent="1" source="SJadG3gvaAwJ8imaXhFB-14" target="SJadG3gvaAwJ8imaXhFB-16">
          <mxGeometry relative="1" as="geometry" />
        </mxCell>
        <mxCell id="SJadG3gvaAwJ8imaXhFB-18" value="&lt;font style=&quot;font-size: 16px;&quot;&gt;return n * factorial( n - 1)&lt;/font&gt;" style="strokeWidth=2;html=1;shape=mxgraph.flowchart.start_1;whiteSpace=wrap;" vertex="1" parent="1">
          <mxGeometry x="840" y="255" width="190" height="65" as="geometry" />
        </mxCell>
        <mxCell id="SJadG3gvaAwJ8imaXhFB-19" style="edgeStyle=orthogonalEdgeStyle;rounded=0;orthogonalLoop=1;jettySize=auto;html=1;entryX=0.5;entryY=0;entryDx=0;entryDy=0;entryPerimeter=0;" edge="1" parent="1" source="SJadG3gvaAwJ8imaXhFB-14" target="SJadG3gvaAwJ8imaXhFB-18">
          <mxGeometry relative="1" as="geometry" />
        </mxCell>
        <mxCell id="SJadG3gvaAwJ8imaXhFB-26" style="edgeStyle=orthogonalEdgeStyle;rounded=0;orthogonalLoop=1;jettySize=auto;html=1;entryX=0.5;entryY=0;entryDx=0;entryDy=0;" edge="1" parent="1" source="SJadG3gvaAwJ8imaXhFB-21" target="SJadG3gvaAwJ8imaXhFB-22">
          <mxGeometry relative="1" as="geometry" />
        </mxCell>
        <mxCell id="SJadG3gvaAwJ8imaXhFB-30" style="edgeStyle=orthogonalEdgeStyle;rounded=0;orthogonalLoop=1;jettySize=auto;html=1;entryX=0.5;entryY=0;entryDx=0;entryDy=0;" edge="1" parent="1" source="SJadG3gvaAwJ8imaXhFB-21" target="SJadG3gvaAwJ8imaXhFB-29">
          <mxGeometry relative="1" as="geometry">
            <mxPoint x="1180" y="310" as="targetPoint" />
          </mxGeometry>
        </mxCell>
        <mxCell id="SJadG3gvaAwJ8imaXhFB-21" value="if (n &amp;gt; 1)" style="rhombus;whiteSpace=wrap;html=1;" vertex="1" parent="1">
          <mxGeometry x="1248" y="170" width="142" height="70" as="geometry" />
        </mxCell>
        <mxCell id="SJadG3gvaAwJ8imaXhFB-27" style="edgeStyle=orthogonalEdgeStyle;rounded=0;orthogonalLoop=1;jettySize=auto;html=1;entryX=0.5;entryY=0;entryDx=0;entryDy=0;" edge="1" parent="1" source="SJadG3gvaAwJ8imaXhFB-22" target="SJadG3gvaAwJ8imaXhFB-24">
          <mxGeometry relative="1" as="geometry" />
        </mxCell>
        <mxCell id="SJadG3gvaAwJ8imaXhFB-22" value="output n" style="shape=parallelogram;perimeter=parallelogramPerimeter;whiteSpace=wrap;html=1;fixedSize=1;" vertex="1" parent="1">
          <mxGeometry x="1434" y="255" width="132" height="30" as="geometry" />
        </mxCell>
        <mxCell id="SJadG3gvaAwJ8imaXhFB-28" style="edgeStyle=orthogonalEdgeStyle;rounded=0;orthogonalLoop=1;jettySize=auto;html=1;entryX=0.5;entryY=0;entryDx=0;entryDy=0;entryPerimeter=0;" edge="1" parent="1" source="SJadG3gvaAwJ8imaXhFB-24" target="SJadG3gvaAwJ8imaXhFB-31">
          <mxGeometry relative="1" as="geometry" />
        </mxCell>
        <mxCell id="SJadG3gvaAwJ8imaXhFB-24" value="printFactorialSeries(n - 1)" style="verticalLabelPosition=bottom;verticalAlign=top;html=1;shape=process;whiteSpace=wrap;rounded=1;size=0.14;arcSize=6;" vertex="1" parent="1">
          <mxGeometry x="1425" y="330" width="150" height="40" as="geometry" />
        </mxCell>
        <mxCell id="SJadG3gvaAwJ8imaXhFB-29" value="output 1" style="shape=parallelogram;perimeter=parallelogramPerimeter;whiteSpace=wrap;html=1;fixedSize=1;" vertex="1" parent="1">
          <mxGeometry x="1110" y="335" width="132" height="30" as="geometry" />
        </mxCell>
        <mxCell id="SJadG3gvaAwJ8imaXhFB-31" value="&lt;font style=&quot;font-size: 24px;&quot;&gt;end&lt;/font&gt;" style="strokeWidth=2;html=1;shape=mxgraph.flowchart.start_1;whiteSpace=wrap;" vertex="1" parent="1">
          <mxGeometry x="1275" y="500" width="100" height="60" as="geometry" />
        </mxCell>
        <mxCell id="SJadG3gvaAwJ8imaXhFB-33" style="edgeStyle=orthogonalEdgeStyle;rounded=0;orthogonalLoop=1;jettySize=auto;html=1;entryX=0.5;entryY=0;entryDx=0;entryDy=0;entryPerimeter=0;" edge="1" parent="1" source="SJadG3gvaAwJ8imaXhFB-29" target="SJadG3gvaAwJ8imaXhFB-31">
          <mxGeometry relative="1" as="geometry" />
        </mxCell>
      </root>
    </mxGraphModel>
  </diagram>
</mxfile>
